<svg width="21" height="21" viewBox="0 0 21 21" fill="none" xmlns="http://www.w3.org/2000/svg">
<path d="M15.75 2.625H5.25C2.83777 2.625 0.875 4.58777 0.875 7V14C0.875 16.4122 2.83777 18.375 5.25 18.375H15.75C18.1622 18.375 20.125 16.4122 20.125 14V7C20.125 4.58777 18.1622 2.625 15.75 2.625ZM14.0908 10.2289L18.3207 6.46883C18.3561 6.64047 18.375 6.81805 18.375 7V14C18.375 14.1595 18.3553 14.314 18.3279 14.4657L14.0908 10.2289ZM15.75 4.375C16.3703 4.375 16.9334 4.60016 17.383 4.96118L11.0815 10.5624C10.7491 10.858 10.2488 10.8563 9.91895 10.5632L3.61696 4.96118C4.06669 4.60016 4.62975 4.375 5.25 4.375H15.75ZM2.67205 14.4657C2.64471 14.314 2.625 14.1595 2.625 14V7C2.625 6.81805 2.64385 6.64047 2.67926 6.46888L6.909 10.2291L2.67205 14.4657ZM5.25 16.625C4.61864 16.625 4.0465 16.3919 3.59319 16.0192L8.21899 11.3937L8.75641 11.8715C9.2533 12.3124 9.87665 12.5328 10.5 12.5328C11.1234 12.5328 11.7467 12.3124 12.244 11.8706L12.7808 11.3935L17.4068 16.0192C16.9535 16.3919 16.3814 16.625 15.75 16.625H5.25Z" fill="white"/>
</svg>
